<mxfile host="app.diagrams.net" modified="2024-01-15T14:27:25.361Z" agent="Mozilla/5.0 (Windows NT 10.0; Win64; x64) AppleWebKit/537.36 (KHTML, like Gecko) Chrome/119.0.0.0 Safari/537.36" etag="k_XLkTIoUYZ0ikylk3Or" version="22.1.18" type="device">
  <diagram name="Page-1" id="mipcz4BeCPqu3NrqbcpR">
    <mxGraphModel dx="2728" dy="969" grid="1" gridSize="10" guides="1" tooltips="1" connect="1" arrows="1" fold="1" page="1" pageScale="1" pageWidth="850" pageHeight="1100" math="0" shadow="0">
      <root>
        <mxCell id="0" />
        <mxCell id="1" parent="0" />
        <mxCell id="Dpp0LYQ1BTNpAMiysCnD-1" value="User" style="swimlane;whiteSpace=wrap;html=1;" parent="1" vertex="1">
          <mxGeometry x="-7.5" y="370" width="200" height="200" as="geometry" />
        </mxCell>
        <mxCell id="Dpp0LYQ1BTNpAMiysCnD-45" value="User_ID {PK}" style="text;html=1;align=center;verticalAlign=middle;resizable=0;points=[];autosize=1;strokeColor=none;fillColor=none;" parent="Dpp0LYQ1BTNpAMiysCnD-1" vertex="1">
          <mxGeometry x="55" y="28" width="90" height="30" as="geometry" />
        </mxCell>
        <mxCell id="Dpp0LYQ1BTNpAMiysCnD-2" value="Post" style="swimlane;whiteSpace=wrap;html=1;" parent="1" vertex="1">
          <mxGeometry x="332.5" y="370" width="200" height="200" as="geometry" />
        </mxCell>
        <mxCell id="Dpp0LYQ1BTNpAMiysCnD-46" value="Post_ID {PK}" style="text;html=1;align=center;verticalAlign=middle;resizable=0;points=[];autosize=1;strokeColor=none;fillColor=none;" parent="Dpp0LYQ1BTNpAMiysCnD-2" vertex="1">
          <mxGeometry x="55" y="28" width="90" height="30" as="geometry" />
        </mxCell>
        <mxCell id="Dpp0LYQ1BTNpAMiysCnD-6" value="Notification" style="swimlane;whiteSpace=wrap;html=1;startSize=23;" parent="1" vertex="1">
          <mxGeometry x="-422.5" y="370" width="200" height="200" as="geometry" />
        </mxCell>
        <mxCell id="Dpp0LYQ1BTNpAMiysCnD-43" value="Notification_ID {PK}" style="text;html=1;align=center;verticalAlign=middle;resizable=0;points=[];autosize=1;strokeColor=none;fillColor=none;" parent="Dpp0LYQ1BTNpAMiysCnD-6" vertex="1">
          <mxGeometry x="35" y="28" width="130" height="30" as="geometry" />
        </mxCell>
        <mxCell id="Dpp0LYQ1BTNpAMiysCnD-9" value="Group_Split" style="swimlane;whiteSpace=wrap;html=1;startSize=23;" parent="1" vertex="1">
          <mxGeometry x="-402.5" y="780" width="200" height="200" as="geometry" />
        </mxCell>
        <mxCell id="Dpp0LYQ1BTNpAMiysCnD-49" value="Group_Split_ID {PK}" style="text;html=1;align=center;verticalAlign=middle;resizable=0;points=[];autosize=1;strokeColor=none;fillColor=none;" parent="Dpp0LYQ1BTNpAMiysCnD-9" vertex="1">
          <mxGeometry x="35" y="30" width="130" height="30" as="geometry" />
        </mxCell>
        <mxCell id="Dpp0LYQ1BTNpAMiysCnD-11" value="1" style="text;html=1;align=center;verticalAlign=middle;resizable=0;points=[];autosize=1;strokeColor=none;fillColor=none;" parent="1" vertex="1">
          <mxGeometry x="197.5" y="448" width="30" height="30" as="geometry" />
        </mxCell>
        <mxCell id="Dpp0LYQ1BTNpAMiysCnD-12" value="0..*" style="text;html=1;align=center;verticalAlign=middle;resizable=0;points=[];autosize=1;strokeColor=none;fillColor=none;" parent="1" vertex="1">
          <mxGeometry x="292.5" y="448" width="40" height="30" as="geometry" />
        </mxCell>
        <mxCell id="Dpp0LYQ1BTNpAMiysCnD-13" value="Creates" style="text;html=1;align=center;verticalAlign=middle;resizable=0;points=[];autosize=1;strokeColor=none;fillColor=none;" parent="1" vertex="1">
          <mxGeometry x="227.5" y="438" width="70" height="30" as="geometry" />
        </mxCell>
        <mxCell id="Dpp0LYQ1BTNpAMiysCnD-16" value="0..*" style="text;html=1;align=center;verticalAlign=middle;resizable=0;points=[];autosize=1;strokeColor=none;fillColor=none;" parent="1" vertex="1">
          <mxGeometry x="97.5" y="580" width="40" height="30" as="geometry" />
        </mxCell>
        <mxCell id="Dpp0LYQ1BTNpAMiysCnD-17" value="Is a member of" style="text;html=1;align=center;verticalAlign=middle;resizable=0;points=[];autosize=1;strokeColor=none;fillColor=none;" parent="1" vertex="1">
          <mxGeometry x="157.5" y="650" width="100" height="30" as="geometry" />
        </mxCell>
        <mxCell id="Dpp0LYQ1BTNpAMiysCnD-19" value="0..*" style="text;html=1;align=center;verticalAlign=middle;resizable=0;points=[];autosize=1;strokeColor=none;fillColor=none;" parent="1" vertex="1">
          <mxGeometry x="192.5" y="390" width="40" height="30" as="geometry" />
        </mxCell>
        <mxCell id="Dpp0LYQ1BTNpAMiysCnD-20" value="0..*" style="text;html=1;align=center;verticalAlign=middle;resizable=0;points=[];autosize=1;strokeColor=none;fillColor=none;" parent="1" vertex="1">
          <mxGeometry x="292.5" y="388" width="40" height="30" as="geometry" />
        </mxCell>
        <mxCell id="Dpp0LYQ1BTNpAMiysCnD-21" value="Likes" style="text;html=1;align=center;verticalAlign=middle;resizable=0;points=[];autosize=1;strokeColor=none;fillColor=none;" parent="1" vertex="1">
          <mxGeometry x="237.5" y="388" width="50" height="30" as="geometry" />
        </mxCell>
        <mxCell id="Dpp0LYQ1BTNpAMiysCnD-22" value="" style="endArrow=classic;html=1;rounded=0;entryX=1.01;entryY=0.727;entryDx=0;entryDy=0;entryPerimeter=0;exitX=1;exitY=0.5;exitDx=0;exitDy=0;" parent="1" source="Dpp0LYQ1BTNpAMiysCnD-1" target="Dpp0LYQ1BTNpAMiysCnD-12" edge="1">
          <mxGeometry width="50" height="50" relative="1" as="geometry">
            <mxPoint x="227.5" y="528" as="sourcePoint" />
            <mxPoint x="282.5" y="478" as="targetPoint" />
          </mxGeometry>
        </mxCell>
        <mxCell id="Dpp0LYQ1BTNpAMiysCnD-23" value="" style="endArrow=classic;html=1;rounded=0;entryX=0;entryY=0.25;entryDx=0;entryDy=0;exitX=1;exitY=0.25;exitDx=0;exitDy=0;" parent="1" source="Dpp0LYQ1BTNpAMiysCnD-1" target="Dpp0LYQ1BTNpAMiysCnD-2" edge="1">
          <mxGeometry width="50" height="50" relative="1" as="geometry">
            <mxPoint x="242.5" y="360" as="sourcePoint" />
            <mxPoint x="292.5" y="310" as="targetPoint" />
          </mxGeometry>
        </mxCell>
        <mxCell id="Dpp0LYQ1BTNpAMiysCnD-26" value="" style="endArrow=classic;html=1;rounded=0;entryX=0;entryY=0.75;entryDx=0;entryDy=0;exitX=1;exitY=0.75;exitDx=0;exitDy=0;" parent="1" source="Dpp0LYQ1BTNpAMiysCnD-1" target="Dpp0LYQ1BTNpAMiysCnD-2" edge="1">
          <mxGeometry width="50" height="50" relative="1" as="geometry">
            <mxPoint x="272.5" y="630" as="sourcePoint" />
            <mxPoint x="322.5" y="580" as="targetPoint" />
          </mxGeometry>
        </mxCell>
        <mxCell id="Dpp0LYQ1BTNpAMiysCnD-27" value="0..*" style="text;html=1;align=center;verticalAlign=middle;resizable=0;points=[];autosize=1;strokeColor=none;fillColor=none;" parent="1" vertex="1">
          <mxGeometry x="192.5" y="488" width="40" height="30" as="geometry" />
        </mxCell>
        <mxCell id="Dpp0LYQ1BTNpAMiysCnD-28" value="0..*" style="text;html=1;align=center;verticalAlign=middle;resizable=0;points=[];autosize=1;strokeColor=none;fillColor=none;" parent="1" vertex="1">
          <mxGeometry x="287.5" y="488" width="40" height="30" as="geometry" />
        </mxCell>
        <mxCell id="Dpp0LYQ1BTNpAMiysCnD-29" value="Comments&lt;br&gt;on" style="text;html=1;align=center;verticalAlign=middle;resizable=0;points=[];autosize=1;strokeColor=none;fillColor=none;" parent="1" vertex="1">
          <mxGeometry x="222.5" y="483" width="80" height="40" as="geometry" />
        </mxCell>
        <mxCell id="Dpp0LYQ1BTNpAMiysCnD-30" value="" style="endArrow=classic;html=1;rounded=0;entryX=0;entryY=0.5;entryDx=0;entryDy=0;exitX=1;exitY=0.5;exitDx=0;exitDy=0;" parent="1" source="Dpp0LYQ1BTNpAMiysCnD-6" target="Dpp0LYQ1BTNpAMiysCnD-1" edge="1">
          <mxGeometry width="50" height="50" relative="1" as="geometry">
            <mxPoint x="-372.5" y="690" as="sourcePoint" />
            <mxPoint x="-322.5" y="640" as="targetPoint" />
          </mxGeometry>
        </mxCell>
        <mxCell id="Dpp0LYQ1BTNpAMiysCnD-31" value="Belongs&lt;br&gt;to" style="text;html=1;align=center;verticalAlign=middle;resizable=0;points=[];autosize=1;strokeColor=none;fillColor=none;" parent="1" vertex="1">
          <mxGeometry x="-152.5" y="433" width="70" height="40" as="geometry" />
        </mxCell>
        <mxCell id="Dpp0LYQ1BTNpAMiysCnD-32" value="0..*" style="text;html=1;align=center;verticalAlign=middle;resizable=0;points=[];autosize=1;strokeColor=none;fillColor=none;" parent="1" vertex="1">
          <mxGeometry x="-222.5" y="438" width="40" height="30" as="geometry" />
        </mxCell>
        <mxCell id="Dpp0LYQ1BTNpAMiysCnD-33" value="1" style="text;html=1;align=center;verticalAlign=middle;resizable=0;points=[];autosize=1;strokeColor=none;fillColor=none;" parent="1" vertex="1">
          <mxGeometry x="-37.5" y="438" width="30" height="30" as="geometry" />
        </mxCell>
        <mxCell id="Dpp0LYQ1BTNpAMiysCnD-34" value="" style="endArrow=classic;html=1;rounded=0;entryX=0;entryY=0.5;entryDx=0;entryDy=0;exitX=1;exitY=0.5;exitDx=0;exitDy=0;" parent="1" source="Dpp0LYQ1BTNpAMiysCnD-9" edge="1">
          <mxGeometry width="50" height="50" relative="1" as="geometry">
            <mxPoint x="-92.5" y="940" as="sourcePoint" />
            <mxPoint x="-7.5" y="880" as="targetPoint" />
          </mxGeometry>
        </mxCell>
        <mxCell id="Dpp0LYQ1BTNpAMiysCnD-36" value="1" style="text;html=1;align=center;verticalAlign=middle;resizable=0;points=[];autosize=1;strokeColor=none;fillColor=none;" parent="1" vertex="1">
          <mxGeometry x="-37.5" y="848" width="30" height="30" as="geometry" />
        </mxCell>
        <mxCell id="Dpp0LYQ1BTNpAMiysCnD-37" value="0..*" style="text;html=1;align=center;verticalAlign=middle;resizable=0;points=[];autosize=1;strokeColor=none;fillColor=none;" parent="1" vertex="1">
          <mxGeometry x="-197.5" y="848" width="40" height="30" as="geometry" />
        </mxCell>
        <mxCell id="Dpp0LYQ1BTNpAMiysCnD-42" value="Group" style="swimlane;whiteSpace=wrap;html=1;" parent="1" vertex="1">
          <mxGeometry x="-7.5" y="780" width="200" height="200" as="geometry" />
        </mxCell>
        <mxCell id="Dpp0LYQ1BTNpAMiysCnD-47" value="Group_ID {PK}" style="text;html=1;align=center;verticalAlign=middle;resizable=0;points=[];autosize=1;strokeColor=none;fillColor=none;" parent="Dpp0LYQ1BTNpAMiysCnD-42" vertex="1">
          <mxGeometry x="50" y="30" width="100" height="30" as="geometry" />
        </mxCell>
        <mxCell id="Dpp0LYQ1BTNpAMiysCnD-48" value="Belongs&lt;br&gt;to" style="text;html=1;align=center;verticalAlign=middle;resizable=0;points=[];autosize=1;strokeColor=none;fillColor=none;" parent="1" vertex="1">
          <mxGeometry x="-142.5" y="843" width="70" height="40" as="geometry" />
        </mxCell>
        <mxCell id="Rh0EF4wnjJrDwPLKks2O-13" value="0..*" style="text;html=1;align=center;verticalAlign=middle;resizable=0;points=[];autosize=1;strokeColor=none;fillColor=none;" parent="1" vertex="1">
          <mxGeometry x="97.5" y="750" width="40" height="30" as="geometry" />
        </mxCell>
        <mxCell id="Rh0EF4wnjJrDwPLKks2O-68" value="Account" style="swimlane;whiteSpace=wrap;html=1;" parent="1" vertex="1">
          <mxGeometry x="150" y="1460" width="200" height="200" as="geometry" />
        </mxCell>
        <mxCell id="Rh0EF4wnjJrDwPLKks2O-69" value="username {PK}" style="text;html=1;align=center;verticalAlign=middle;resizable=0;points=[];autosize=1;strokeColor=none;fillColor=none;" parent="Rh0EF4wnjJrDwPLKks2O-68" vertex="1">
          <mxGeometry x="50" y="30" width="100" height="30" as="geometry" />
        </mxCell>
        <mxCell id="Rh0EF4wnjJrDwPLKks2O-71" value="typeOfAccount" style="text;html=1;strokeColor=none;fillColor=none;align=center;verticalAlign=middle;whiteSpace=wrap;rounded=0;rotation=0;" parent="Rh0EF4wnjJrDwPLKks2O-68" vertex="1">
          <mxGeometry x="70" y="75" width="60" height="30" as="geometry" />
        </mxCell>
        <mxCell id="Rh0EF4wnjJrDwPLKks2O-72" value="tags" style="text;html=1;strokeColor=none;fillColor=none;align=center;verticalAlign=middle;whiteSpace=wrap;rounded=0;" parent="Rh0EF4wnjJrDwPLKks2O-68" vertex="1">
          <mxGeometry x="70" y="95" width="60" height="30" as="geometry" />
        </mxCell>
        <mxCell id="zcyIjwBL12K0i02IjgGY-17" value="dob" style="text;strokeColor=none;fillColor=none;align=center;verticalAlign=middle;spacingLeft=4;spacingRight=4;overflow=hidden;points=[[0,0.5],[1,0.5]];portConstraint=eastwest;rotatable=0;whiteSpace=wrap;html=1;" parent="Rh0EF4wnjJrDwPLKks2O-68" vertex="1">
          <mxGeometry x="60" y="120" width="80" height="30" as="geometry" />
        </mxCell>
        <mxCell id="zcyIjwBL12K0i02IjgGY-18" value="/age" style="text;strokeColor=none;fillColor=none;align=center;verticalAlign=middle;spacingLeft=4;spacingRight=4;overflow=hidden;points=[[0,0.5],[1,0.5]];portConstraint=eastwest;rotatable=0;whiteSpace=wrap;html=1;" parent="Rh0EF4wnjJrDwPLKks2O-68" vertex="1">
          <mxGeometry x="60" y="140" width="80" height="30" as="geometry" />
        </mxCell>
        <mxCell id="Rh0EF4wnjJrDwPLKks2O-73" value="Post" style="swimlane;whiteSpace=wrap;html=1;" parent="1" vertex="1">
          <mxGeometry x="545" y="1460" width="200" height="200" as="geometry" />
        </mxCell>
        <mxCell id="Rh0EF4wnjJrDwPLKks2O-74" value="postID {PK}" style="text;html=1;align=center;verticalAlign=middle;resizable=0;points=[];autosize=1;strokeColor=none;fillColor=none;" parent="Rh0EF4wnjJrDwPLKks2O-73" vertex="1">
          <mxGeometry x="55" y="28" width="90" height="30" as="geometry" />
        </mxCell>
        <mxCell id="Rh0EF4wnjJrDwPLKks2O-76" value="/likes" style="text;html=1;strokeColor=none;fillColor=none;align=center;verticalAlign=middle;whiteSpace=wrap;rounded=0;" parent="Rh0EF4wnjJrDwPLKks2O-73" vertex="1">
          <mxGeometry x="70" y="58" width="60" height="30" as="geometry" />
        </mxCell>
        <mxCell id="Rh0EF4wnjJrDwPLKks2O-77" value="tags" style="text;html=1;strokeColor=none;fillColor=none;align=center;verticalAlign=middle;whiteSpace=wrap;rounded=0;" parent="Rh0EF4wnjJrDwPLKks2O-73" vertex="1">
          <mxGeometry x="70" y="88" width="60" height="30" as="geometry" />
        </mxCell>
        <mxCell id="OdN4RCp4MEMPDeF_XI6s-49" value="text" style="text;html=1;strokeColor=none;fillColor=none;align=center;verticalAlign=middle;whiteSpace=wrap;rounded=0;" parent="Rh0EF4wnjJrDwPLKks2O-73" vertex="1">
          <mxGeometry x="70" y="118" width="60" height="30" as="geometry" />
        </mxCell>
        <mxCell id="Rh0EF4wnjJrDwPLKks2O-78" value="Notification" style="swimlane;whiteSpace=wrap;html=1;startSize=23;" parent="1" vertex="1">
          <mxGeometry x="-265" y="1460" width="200" height="200" as="geometry" />
        </mxCell>
        <mxCell id="Rh0EF4wnjJrDwPLKks2O-79" value="notificationID {PK}" style="text;html=1;align=center;verticalAlign=middle;resizable=0;points=[];autosize=1;strokeColor=none;fillColor=none;" parent="Rh0EF4wnjJrDwPLKks2O-78" vertex="1">
          <mxGeometry x="40" y="28" width="120" height="30" as="geometry" />
        </mxCell>
        <mxCell id="zcyIjwBL12K0i02IjgGY-11" value="timestamp" style="text;strokeColor=none;fillColor=none;align=left;verticalAlign=middle;spacingLeft=4;spacingRight=4;overflow=hidden;points=[[0,0.5],[1,0.5]];portConstraint=eastwest;rotatable=0;whiteSpace=wrap;html=1;" parent="Rh0EF4wnjJrDwPLKks2O-78" vertex="1">
          <mxGeometry x="60" y="60" width="80" height="30" as="geometry" />
        </mxCell>
        <mxCell id="zcyIjwBL12K0i02IjgGY-12" value="/killTime" style="text;strokeColor=none;fillColor=none;align=left;verticalAlign=middle;spacingLeft=4;spacingRight=4;overflow=hidden;points=[[0,0.5],[1,0.5]];portConstraint=eastwest;rotatable=0;whiteSpace=wrap;html=1;" parent="Rh0EF4wnjJrDwPLKks2O-78" vertex="1">
          <mxGeometry x="65" y="90" width="80" height="30" as="geometry" />
        </mxCell>
        <mxCell id="OdN4RCp4MEMPDeF_XI6s-24" value="notifMessage" style="text;html=1;strokeColor=none;fillColor=none;align=center;verticalAlign=middle;whiteSpace=wrap;rounded=0;" parent="Rh0EF4wnjJrDwPLKks2O-78" vertex="1">
          <mxGeometry x="50" y="120" width="95" height="30" as="geometry" />
        </mxCell>
        <mxCell id="Rh0EF4wnjJrDwPLKks2O-81" value="Group_Split" style="swimlane;whiteSpace=wrap;html=1;startSize=23;" parent="1" vertex="1">
          <mxGeometry x="-245" y="1870" width="200" height="200" as="geometry" />
        </mxCell>
        <mxCell id="Rh0EF4wnjJrDwPLKks2O-82" value="groupSplitID {PK}" style="text;html=1;align=center;verticalAlign=middle;resizable=0;points=[];autosize=1;strokeColor=none;fillColor=none;" parent="Rh0EF4wnjJrDwPLKks2O-81" vertex="1">
          <mxGeometry x="40" y="30" width="120" height="30" as="geometry" />
        </mxCell>
        <mxCell id="-S3U3vzZ7X92yf2erA8T-2" value="SplitAB [1..2]" style="text;html=1;strokeColor=none;fillColor=none;align=center;verticalAlign=middle;whiteSpace=wrap;rounded=0;" parent="Rh0EF4wnjJrDwPLKks2O-81" vertex="1">
          <mxGeometry x="50" y="63" width="100" height="30" as="geometry" />
        </mxCell>
        <mxCell id="Rh0EF4wnjJrDwPLKks2O-83" value="1" style="text;html=1;align=center;verticalAlign=middle;resizable=0;points=[];autosize=1;strokeColor=none;fillColor=none;" parent="1" vertex="1">
          <mxGeometry x="355" y="1538" width="30" height="30" as="geometry" />
        </mxCell>
        <mxCell id="Rh0EF4wnjJrDwPLKks2O-84" value="0..*" style="text;html=1;align=center;verticalAlign=middle;resizable=0;points=[];autosize=1;strokeColor=none;fillColor=none;" parent="1" vertex="1">
          <mxGeometry x="505" y="1538" width="40" height="30" as="geometry" />
        </mxCell>
        <mxCell id="Rh0EF4wnjJrDwPLKks2O-85" value="Creates" style="text;html=1;align=center;verticalAlign=middle;resizable=0;points=[];autosize=1;strokeColor=none;fillColor=none;" parent="1" vertex="1">
          <mxGeometry x="385" y="1528" width="70" height="30" as="geometry" />
        </mxCell>
        <mxCell id="Rh0EF4wnjJrDwPLKks2O-86" value="0..*" style="text;html=1;align=center;verticalAlign=middle;resizable=0;points=[];autosize=1;strokeColor=none;fillColor=none;" parent="1" vertex="1">
          <mxGeometry x="260" y="1660" width="40" height="30" as="geometry" />
        </mxCell>
        <mxCell id="Rh0EF4wnjJrDwPLKks2O-89" value="0..*" style="text;html=1;align=center;verticalAlign=middle;resizable=0;points=[];autosize=1;strokeColor=none;fillColor=none;" parent="1" vertex="1">
          <mxGeometry x="350" y="1480" width="40" height="30" as="geometry" />
        </mxCell>
        <mxCell id="Rh0EF4wnjJrDwPLKks2O-90" value="0..*" style="text;html=1;align=center;verticalAlign=middle;resizable=0;points=[];autosize=1;strokeColor=none;fillColor=none;" parent="1" vertex="1">
          <mxGeometry x="450" y="1478" width="40" height="30" as="geometry" />
        </mxCell>
        <mxCell id="Rh0EF4wnjJrDwPLKks2O-91" value="Likes" style="text;html=1;align=center;verticalAlign=middle;resizable=0;points=[];autosize=1;strokeColor=none;fillColor=none;" parent="1" vertex="1">
          <mxGeometry x="395" y="1478" width="50" height="30" as="geometry" />
        </mxCell>
        <mxCell id="Rh0EF4wnjJrDwPLKks2O-92" value="" style="endArrow=classic;html=1;rounded=0;entryX=0;entryY=0.5;entryDx=0;entryDy=0;exitX=1;exitY=0.5;exitDx=0;exitDy=0;" parent="1" source="Rh0EF4wnjJrDwPLKks2O-68" target="Rh0EF4wnjJrDwPLKks2O-73" edge="1">
          <mxGeometry width="50" height="50" relative="1" as="geometry">
            <mxPoint x="385" y="1618" as="sourcePoint" />
            <mxPoint x="440" y="1568" as="targetPoint" />
          </mxGeometry>
        </mxCell>
        <mxCell id="Rh0EF4wnjJrDwPLKks2O-93" value="" style="endArrow=classic;html=1;rounded=0;entryX=0;entryY=0.25;entryDx=0;entryDy=0;exitX=1;exitY=0.25;exitDx=0;exitDy=0;" parent="1" source="Rh0EF4wnjJrDwPLKks2O-68" target="Rh0EF4wnjJrDwPLKks2O-73" edge="1">
          <mxGeometry width="50" height="50" relative="1" as="geometry">
            <mxPoint x="400" y="1450" as="sourcePoint" />
            <mxPoint x="450" y="1400" as="targetPoint" />
          </mxGeometry>
        </mxCell>
        <mxCell id="Rh0EF4wnjJrDwPLKks2O-95" value="" style="endArrow=classic;html=1;rounded=0;entryX=0;entryY=0.75;entryDx=0;entryDy=0;exitX=1;exitY=0.75;exitDx=0;exitDy=0;" parent="1" source="Rh0EF4wnjJrDwPLKks2O-68" target="Rh0EF4wnjJrDwPLKks2O-73" edge="1">
          <mxGeometry width="50" height="50" relative="1" as="geometry">
            <mxPoint x="430" y="1720" as="sourcePoint" />
            <mxPoint x="480" y="1670" as="targetPoint" />
          </mxGeometry>
        </mxCell>
        <mxCell id="Rh0EF4wnjJrDwPLKks2O-96" value="0..*" style="text;html=1;align=center;verticalAlign=middle;resizable=0;points=[];autosize=1;strokeColor=none;fillColor=none;" parent="1" vertex="1">
          <mxGeometry x="350" y="1578" width="40" height="30" as="geometry" />
        </mxCell>
        <mxCell id="Rh0EF4wnjJrDwPLKks2O-97" value="0..*" style="text;html=1;align=center;verticalAlign=middle;resizable=0;points=[];autosize=1;strokeColor=none;fillColor=none;" parent="1" vertex="1">
          <mxGeometry x="445" y="1578" width="40" height="30" as="geometry" />
        </mxCell>
        <mxCell id="Rh0EF4wnjJrDwPLKks2O-98" value="Comments&lt;br&gt;on" style="text;html=1;align=center;verticalAlign=middle;resizable=0;points=[];autosize=1;strokeColor=none;fillColor=none;" parent="1" vertex="1">
          <mxGeometry x="380" y="1573" width="80" height="40" as="geometry" />
        </mxCell>
        <mxCell id="Rh0EF4wnjJrDwPLKks2O-99" value="" style="endArrow=classic;html=1;rounded=0;entryX=0;entryY=0.5;entryDx=0;entryDy=0;exitX=1;exitY=0.5;exitDx=0;exitDy=0;" parent="1" source="Rh0EF4wnjJrDwPLKks2O-78" target="Rh0EF4wnjJrDwPLKks2O-68" edge="1">
          <mxGeometry width="50" height="50" relative="1" as="geometry">
            <mxPoint x="-215" y="1780" as="sourcePoint" />
            <mxPoint x="-165" y="1730" as="targetPoint" />
          </mxGeometry>
        </mxCell>
        <mxCell id="Rh0EF4wnjJrDwPLKks2O-100" value="Belongs&lt;br&gt;to" style="text;html=1;align=center;verticalAlign=middle;resizable=0;points=[];autosize=1;strokeColor=none;fillColor=none;" parent="1" vertex="1">
          <mxGeometry x="5" y="1523" width="70" height="40" as="geometry" />
        </mxCell>
        <mxCell id="Rh0EF4wnjJrDwPLKks2O-101" value="0..*" style="text;html=1;align=center;verticalAlign=middle;resizable=0;points=[];autosize=1;strokeColor=none;fillColor=none;" parent="1" vertex="1">
          <mxGeometry x="-65" y="1528" width="40" height="30" as="geometry" />
        </mxCell>
        <mxCell id="Rh0EF4wnjJrDwPLKks2O-102" value="1" style="text;html=1;align=center;verticalAlign=middle;resizable=0;points=[];autosize=1;strokeColor=none;fillColor=none;" parent="1" vertex="1">
          <mxGeometry x="120" y="1528" width="30" height="30" as="geometry" />
        </mxCell>
        <mxCell id="Rh0EF4wnjJrDwPLKks2O-103" value="" style="endArrow=classic;html=1;rounded=0;entryX=0;entryY=0.5;entryDx=0;entryDy=0;exitX=1;exitY=0.5;exitDx=0;exitDy=0;" parent="1" source="Rh0EF4wnjJrDwPLKks2O-81" edge="1">
          <mxGeometry width="50" height="50" relative="1" as="geometry">
            <mxPoint x="65" y="2030" as="sourcePoint" />
            <mxPoint x="150" y="1970" as="targetPoint" />
          </mxGeometry>
        </mxCell>
        <mxCell id="Rh0EF4wnjJrDwPLKks2O-104" value="1" style="text;html=1;align=center;verticalAlign=middle;resizable=0;points=[];autosize=1;strokeColor=none;fillColor=none;" parent="1" vertex="1">
          <mxGeometry x="120" y="1938" width="30" height="30" as="geometry" />
        </mxCell>
        <mxCell id="Rh0EF4wnjJrDwPLKks2O-105" value="0..2" style="text;html=1;align=center;verticalAlign=middle;resizable=0;points=[];autosize=1;strokeColor=none;fillColor=none;" parent="1" vertex="1">
          <mxGeometry x="-40" y="1938" width="40" height="30" as="geometry" />
        </mxCell>
        <mxCell id="Rh0EF4wnjJrDwPLKks2O-106" value="Group" style="swimlane;whiteSpace=wrap;html=1;" parent="1" vertex="1">
          <mxGeometry x="150" y="1870" width="200" height="200" as="geometry" />
        </mxCell>
        <mxCell id="Rh0EF4wnjJrDwPLKks2O-107" value="groupID {PK}" style="text;html=1;align=center;verticalAlign=middle;resizable=0;points=[];autosize=1;strokeColor=none;fillColor=none;" parent="Rh0EF4wnjJrDwPLKks2O-106" vertex="1">
          <mxGeometry x="55" y="30" width="90" height="30" as="geometry" />
        </mxCell>
        <mxCell id="Rh0EF4wnjJrDwPLKks2O-108" value="tags" style="text;html=1;strokeColor=none;fillColor=none;align=center;verticalAlign=middle;whiteSpace=wrap;rounded=0;" parent="Rh0EF4wnjJrDwPLKks2O-106" vertex="1">
          <mxGeometry x="70" y="60" width="60" height="30" as="geometry" />
        </mxCell>
        <mxCell id="Rh0EF4wnjJrDwPLKks2O-109" value="Belongs&lt;br&gt;to" style="text;html=1;align=center;verticalAlign=middle;resizable=0;points=[];autosize=1;strokeColor=none;fillColor=none;" parent="1" vertex="1">
          <mxGeometry x="15" y="1933" width="70" height="40" as="geometry" />
        </mxCell>
        <mxCell id="Rh0EF4wnjJrDwPLKks2O-115" value="0..*" style="text;html=1;align=center;verticalAlign=middle;resizable=0;points=[];autosize=1;strokeColor=none;fillColor=none;" parent="1" vertex="1">
          <mxGeometry x="270" y="1840" width="40" height="30" as="geometry" />
        </mxCell>
        <mxCell id="Rh0EF4wnjJrDwPLKks2O-117" value="" style="endArrow=classic;html=1;rounded=0;exitX=0.75;exitY=1;exitDx=0;exitDy=0;entryX=0.75;entryY=0;entryDx=0;entryDy=0;" parent="1" source="Dpp0LYQ1BTNpAMiysCnD-1" target="Dpp0LYQ1BTNpAMiysCnD-42" edge="1">
          <mxGeometry width="50" height="50" relative="1" as="geometry">
            <mxPoint x="7.5" y="720" as="sourcePoint" />
            <mxPoint x="57.5" y="670" as="targetPoint" />
          </mxGeometry>
        </mxCell>
        <mxCell id="Rh0EF4wnjJrDwPLKks2O-122" value="Files" style="swimlane;whiteSpace=wrap;html=1;" parent="1" vertex="1">
          <mxGeometry x="150" y="2150" width="200" height="120" as="geometry" />
        </mxCell>
        <mxCell id="Rh0EF4wnjJrDwPLKks2O-126" value="filename {CK}" style="text;html=1;strokeColor=none;fillColor=none;align=center;verticalAlign=middle;whiteSpace=wrap;rounded=0;" parent="Rh0EF4wnjJrDwPLKks2O-122" vertex="1">
          <mxGeometry x="60" y="30" width="80" height="30" as="geometry" />
        </mxCell>
        <mxCell id="Rh0EF4wnjJrDwPLKks2O-127" value="/fileType" style="text;html=1;strokeColor=none;fillColor=none;align=center;verticalAlign=middle;whiteSpace=wrap;rounded=0;" parent="Rh0EF4wnjJrDwPLKks2O-122" vertex="1">
          <mxGeometry x="70" y="60" width="60" height="30" as="geometry" />
        </mxCell>
        <mxCell id="Rh0EF4wnjJrDwPLKks2O-128" value="file" style="text;html=1;strokeColor=none;fillColor=none;align=center;verticalAlign=middle;whiteSpace=wrap;rounded=0;" parent="Rh0EF4wnjJrDwPLKks2O-122" vertex="1">
          <mxGeometry x="70" y="90" width="60" height="30" as="geometry" />
        </mxCell>
        <mxCell id="Rh0EF4wnjJrDwPLKks2O-123" value="" style="endArrow=classic;html=1;rounded=0;exitX=0.5;exitY=1;exitDx=0;exitDy=0;entryX=0.5;entryY=0;entryDx=0;entryDy=0;" parent="1" source="Rh0EF4wnjJrDwPLKks2O-106" target="Rh0EF4wnjJrDwPLKks2O-122" edge="1">
          <mxGeometry width="50" height="50" relative="1" as="geometry">
            <mxPoint x="170" y="2260" as="sourcePoint" />
            <mxPoint x="220" y="2210" as="targetPoint" />
          </mxGeometry>
        </mxCell>
        <mxCell id="Rh0EF4wnjJrDwPLKks2O-129" value="" style="endArrow=classic;html=1;rounded=0;entryX=0.5;entryY=0;entryDx=0;entryDy=0;exitX=0.5;exitY=1;exitDx=0;exitDy=0;" parent="1" source="Rh0EF4wnjJrDwPLKks2O-68" target="Rh0EF4wnjJrDwPLKks2O-106" edge="1">
          <mxGeometry width="50" height="50" relative="1" as="geometry">
            <mxPoint x="310" y="1890" as="sourcePoint" />
            <mxPoint x="360" y="1840" as="targetPoint" />
          </mxGeometry>
        </mxCell>
        <mxCell id="Rh0EF4wnjJrDwPLKks2O-132" value="Is a member of" style="text;html=1;align=center;verticalAlign=middle;resizable=0;points=[];autosize=1;strokeColor=none;fillColor=none;" parent="1" vertex="1">
          <mxGeometry x="250" y="1740" width="100" height="30" as="geometry" />
        </mxCell>
        <mxCell id="Rh0EF4wnjJrDwPLKks2O-133" value="" style="endArrow=classic;html=1;rounded=0;exitX=0.25;exitY=1;exitDx=0;exitDy=0;entryX=0.25;entryY=0;entryDx=0;entryDy=0;" parent="1" source="Rh0EF4wnjJrDwPLKks2O-68" target="Rh0EF4wnjJrDwPLKks2O-106" edge="1">
          <mxGeometry width="50" height="50" relative="1" as="geometry">
            <mxPoint x="310" y="1620" as="sourcePoint" />
            <mxPoint x="360" y="1570" as="targetPoint" />
          </mxGeometry>
        </mxCell>
        <mxCell id="Rh0EF4wnjJrDwPLKks2O-134" value="manages" style="text;html=1;strokeColor=none;fillColor=none;align=center;verticalAlign=middle;whiteSpace=wrap;rounded=0;" parent="1" vertex="1">
          <mxGeometry x="130" y="1745" width="60" height="30" as="geometry" />
        </mxCell>
        <mxCell id="Rh0EF4wnjJrDwPLKks2O-135" value="1..*" style="text;html=1;strokeColor=none;fillColor=none;align=center;verticalAlign=middle;whiteSpace=wrap;rounded=0;" parent="1" vertex="1">
          <mxGeometry x="150" y="1660" width="60" height="30" as="geometry" />
        </mxCell>
        <mxCell id="Rh0EF4wnjJrDwPLKks2O-136" value="0..*" style="text;html=1;strokeColor=none;fillColor=none;align=center;verticalAlign=middle;whiteSpace=wrap;rounded=0;" parent="1" vertex="1">
          <mxGeometry x="140" y="1840" width="60" height="30" as="geometry" />
        </mxCell>
        <mxCell id="Rh0EF4wnjJrDwPLKks2O-137" value="" style="swimlane;whiteSpace=wrap;html=1;" parent="1" vertex="1">
          <mxGeometry x="380" y="1680" width="200" height="130" as="geometry" />
        </mxCell>
        <mxCell id="Rh0EF4wnjJrDwPLKks2O-138" value="text" style="text;html=1;strokeColor=none;fillColor=none;align=center;verticalAlign=middle;whiteSpace=wrap;rounded=0;" parent="Rh0EF4wnjJrDwPLKks2O-137" vertex="1">
          <mxGeometry x="70" y="30" width="60" height="30" as="geometry" />
        </mxCell>
        <mxCell id="Rh0EF4wnjJrDwPLKks2O-139" value="timeStamp" style="text;html=1;strokeColor=none;fillColor=none;align=center;verticalAlign=middle;whiteSpace=wrap;rounded=0;" parent="Rh0EF4wnjJrDwPLKks2O-137" vertex="1">
          <mxGeometry x="70" y="60" width="60" height="30" as="geometry" />
        </mxCell>
        <mxCell id="fLPjfjouZap_uWt-isAP-25" value="/likes" style="text;html=1;strokeColor=none;fillColor=none;align=center;verticalAlign=middle;whiteSpace=wrap;rounded=0;" parent="Rh0EF4wnjJrDwPLKks2O-137" vertex="1">
          <mxGeometry x="70" y="90" width="60" height="30" as="geometry" />
        </mxCell>
        <mxCell id="Rh0EF4wnjJrDwPLKks2O-140" value="" style="endArrow=none;dashed=1;html=1;rounded=0;exitX=0.5;exitY=0;exitDx=0;exitDy=0;" parent="1" source="Rh0EF4wnjJrDwPLKks2O-137" edge="1">
          <mxGeometry width="50" height="50" relative="1" as="geometry">
            <mxPoint x="310" y="1500" as="sourcePoint" />
            <mxPoint x="480" y="1610" as="targetPoint" />
          </mxGeometry>
        </mxCell>
        <mxCell id="zcyIjwBL12K0i02IjgGY-2" value="" style="endArrow=none;html=1;rounded=0;entryX=0.25;entryY=0;entryDx=0;entryDy=0;exitX=0;exitY=0.25;exitDx=0;exitDy=0;startArrow=classic;startFill=1;" parent="1" source="Rh0EF4wnjJrDwPLKks2O-68" target="Rh0EF4wnjJrDwPLKks2O-68" edge="1">
          <mxGeometry width="50" height="50" relative="1" as="geometry">
            <mxPoint x="-30" y="1420" as="sourcePoint" />
            <mxPoint x="20" y="1370" as="targetPoint" />
            <Array as="points">
              <mxPoint x="120" y="1510" />
              <mxPoint x="120" y="1420" />
              <mxPoint x="200" y="1420" />
            </Array>
          </mxGeometry>
        </mxCell>
        <mxCell id="zcyIjwBL12K0i02IjgGY-3" value="1..*" style="text;html=1;strokeColor=none;fillColor=none;align=center;verticalAlign=middle;whiteSpace=wrap;rounded=0;" parent="1" vertex="1">
          <mxGeometry x="157.5" y="1430" width="60" height="30" as="geometry" />
        </mxCell>
        <mxCell id="zcyIjwBL12K0i02IjgGY-4" value="1..*" style="text;html=1;strokeColor=none;fillColor=none;align=center;verticalAlign=middle;whiteSpace=wrap;rounded=0;" parent="1" vertex="1">
          <mxGeometry x="70" y="1490" width="60" height="30" as="geometry" />
        </mxCell>
        <mxCell id="zcyIjwBL12K0i02IjgGY-5" value="sends messages to" style="text;html=1;strokeColor=none;fillColor=none;align=center;verticalAlign=middle;whiteSpace=wrap;rounded=0;" parent="1" vertex="1">
          <mxGeometry x="-10" y="1454" width="140" height="30" as="geometry" />
        </mxCell>
        <mxCell id="zcyIjwBL12K0i02IjgGY-7" value="" style="swimlane;whiteSpace=wrap;html=1;" parent="1" vertex="1">
          <mxGeometry x="-130" y="1290" width="200" height="140" as="geometry" />
        </mxCell>
        <mxCell id="zcyIjwBL12K0i02IjgGY-8" value="timeStamp" style="text;strokeColor=none;fillColor=none;align=center;verticalAlign=middle;spacingLeft=4;spacingRight=4;overflow=hidden;points=[[0,0.5],[1,0.5]];portConstraint=eastwest;rotatable=0;whiteSpace=wrap;html=1;" parent="zcyIjwBL12K0i02IjgGY-7" vertex="1">
          <mxGeometry x="50" y="25" width="100" height="30" as="geometry" />
        </mxCell>
        <mxCell id="Lg1Hx-eJQgYu_a35tPqR-12" value="messageID {CK}" style="text;html=1;strokeColor=none;fillColor=none;align=center;verticalAlign=middle;whiteSpace=wrap;rounded=0;" vertex="1" parent="zcyIjwBL12K0i02IjgGY-7">
          <mxGeometry x="40" y="55" width="130" height="30" as="geometry" />
        </mxCell>
        <mxCell id="-S3U3vzZ7X92yf2erA8T-4" value="text" style="text;html=1;strokeColor=none;fillColor=none;align=center;verticalAlign=middle;whiteSpace=wrap;rounded=0;" parent="zcyIjwBL12K0i02IjgGY-7" vertex="1">
          <mxGeometry x="70" y="85" width="60" height="30" as="geometry" />
        </mxCell>
        <mxCell id="zcyIjwBL12K0i02IjgGY-10" value="" style="endArrow=none;dashed=1;html=1;strokeWidth=1;rounded=0;dashPattern=1 4;" parent="1" edge="1">
          <mxGeometry width="50" height="50" relative="1" as="geometry">
            <mxPoint x="150" y="1420" as="sourcePoint" />
            <mxPoint x="70" y="1420" as="targetPoint" />
          </mxGeometry>
        </mxCell>
        <mxCell id="Rh0EF4wnjJrDwPLKks2O-70" value="name" style="text;html=1;strokeColor=none;fillColor=none;align=center;verticalAlign=middle;whiteSpace=wrap;rounded=0;" parent="1" vertex="1">
          <mxGeometry x="220" y="1510" width="60" height="30" as="geometry" />
        </mxCell>
        <mxCell id="OdN4RCp4MEMPDeF_XI6s-25" value="contains" style="text;html=1;strokeColor=none;fillColor=none;align=center;verticalAlign=middle;whiteSpace=wrap;rounded=0;" parent="1" vertex="1">
          <mxGeometry x="272.5" y="2090" width="60" height="30" as="geometry" />
        </mxCell>
        <mxCell id="OdN4RCp4MEMPDeF_XI6s-26" value="1" style="text;html=1;align=center;verticalAlign=middle;resizable=0;points=[];autosize=1;strokeColor=none;fillColor=none;" parent="1" vertex="1">
          <mxGeometry x="220" y="2070" width="30" height="30" as="geometry" />
        </mxCell>
        <mxCell id="OdN4RCp4MEMPDeF_XI6s-28" value="0..*" style="text;html=1;align=center;verticalAlign=middle;resizable=0;points=[];autosize=1;strokeColor=none;fillColor=none;" parent="1" vertex="1">
          <mxGeometry x="210" y="2120" width="40" height="30" as="geometry" />
        </mxCell>
        <mxCell id="OdN4RCp4MEMPDeF_XI6s-31" value="Platform_Managers" style="swimlane;whiteSpace=wrap;html=1;" parent="1" vertex="1">
          <mxGeometry x="72.5" y="1200" width="200" height="75" as="geometry" />
        </mxCell>
        <mxCell id="OdN4RCp4MEMPDeF_XI6s-32" value="managerID {PK}" style="text;html=1;strokeColor=none;fillColor=none;align=center;verticalAlign=middle;whiteSpace=wrap;rounded=0;" parent="OdN4RCp4MEMPDeF_XI6s-31" vertex="1">
          <mxGeometry x="60" y="30" width="90" height="30" as="geometry" />
        </mxCell>
        <mxCell id="OdN4RCp4MEMPDeF_XI6s-40" value="User" style="swimlane;whiteSpace=wrap;html=1;" parent="1" vertex="1">
          <mxGeometry x="327.5" y="1200" width="145" height="75" as="geometry" />
        </mxCell>
        <mxCell id="OdN4RCp4MEMPDeF_XI6s-41" value="userID {PK}" style="text;html=1;strokeColor=none;fillColor=none;align=center;verticalAlign=middle;whiteSpace=wrap;rounded=0;" parent="OdN4RCp4MEMPDeF_XI6s-40" vertex="1">
          <mxGeometry x="32.5" y="30" width="90" height="30" as="geometry" />
        </mxCell>
        <mxCell id="OdN4RCp4MEMPDeF_XI6s-42" value="" style="endArrow=none;html=1;rounded=0;exitX=0.5;exitY=0;exitDx=0;exitDy=0;entryX=0.5;entryY=1;entryDx=0;entryDy=0;" parent="1" source="Rh0EF4wnjJrDwPLKks2O-68" target="OdN4RCp4MEMPDeF_XI6s-40" edge="1">
          <mxGeometry width="50" height="50" relative="1" as="geometry">
            <mxPoint x="390" y="1270" as="sourcePoint" />
            <mxPoint x="440" y="1220" as="targetPoint" />
            <Array as="points">
              <mxPoint x="250" y="1340" />
              <mxPoint x="400" y="1340" />
            </Array>
          </mxGeometry>
        </mxCell>
        <mxCell id="OdN4RCp4MEMPDeF_XI6s-43" value="" style="endArrow=none;html=1;rounded=0;exitX=0.5;exitY=1;exitDx=0;exitDy=0;" parent="1" source="OdN4RCp4MEMPDeF_XI6s-31" edge="1">
          <mxGeometry width="50" height="50" relative="1" as="geometry">
            <mxPoint x="96.25" y="1335" as="sourcePoint" />
            <mxPoint x="250" y="1340" as="targetPoint" />
            <Array as="points">
              <mxPoint x="173" y="1340" />
            </Array>
          </mxGeometry>
        </mxCell>
        <mxCell id="OdN4RCp4MEMPDeF_XI6s-44" value="mandatory, or" style="text;html=1;strokeColor=none;fillColor=none;align=center;verticalAlign=middle;whiteSpace=wrap;rounded=0;" parent="1" vertex="1">
          <mxGeometry x="277.5" y="1340" width="92.5" height="30" as="geometry" />
        </mxCell>
        <mxCell id="2GsTjujepCsadmKj7Dgk-5" value="Split_Files" style="swimlane;whiteSpace=wrap;html=1;" parent="1" vertex="1">
          <mxGeometry x="-245" y="2150" width="200" height="140" as="geometry" />
        </mxCell>
        <mxCell id="2GsTjujepCsadmKj7Dgk-10" value="filename {CK}" style="text;html=1;strokeColor=none;fillColor=none;align=center;verticalAlign=middle;whiteSpace=wrap;rounded=0;" parent="2GsTjujepCsadmKj7Dgk-5" vertex="1">
          <mxGeometry x="65" y="30" width="80" height="30" as="geometry" />
        </mxCell>
        <mxCell id="2GsTjujepCsadmKj7Dgk-11" value="/fileType" style="text;html=1;strokeColor=none;fillColor=none;align=center;verticalAlign=middle;whiteSpace=wrap;rounded=0;" parent="2GsTjujepCsadmKj7Dgk-5" vertex="1">
          <mxGeometry x="75" y="60" width="60" height="30" as="geometry" />
        </mxCell>
        <mxCell id="2GsTjujepCsadmKj7Dgk-12" value="file" style="text;html=1;strokeColor=none;fillColor=none;align=center;verticalAlign=middle;whiteSpace=wrap;rounded=0;" parent="2GsTjujepCsadmKj7Dgk-5" vertex="1">
          <mxGeometry x="75" y="90" width="60" height="30" as="geometry" />
        </mxCell>
        <mxCell id="-S3U3vzZ7X92yf2erA8T-3" value="SplitAB [1..2]" style="text;html=1;strokeColor=none;fillColor=none;align=center;verticalAlign=middle;whiteSpace=wrap;rounded=0;" parent="2GsTjujepCsadmKj7Dgk-5" vertex="1">
          <mxGeometry x="55" y="110" width="100" height="30" as="geometry" />
        </mxCell>
        <mxCell id="2GsTjujepCsadmKj7Dgk-6" value="" style="endArrow=classic;html=1;rounded=0;entryX=0.5;entryY=0;entryDx=0;entryDy=0;exitX=0.5;exitY=1;exitDx=0;exitDy=0;" parent="1" source="Rh0EF4wnjJrDwPLKks2O-81" target="2GsTjujepCsadmKj7Dgk-5" edge="1">
          <mxGeometry width="50" height="50" relative="1" as="geometry">
            <mxPoint x="-140" y="2120" as="sourcePoint" />
            <mxPoint x="-147.5" y="2150" as="targetPoint" />
          </mxGeometry>
        </mxCell>
        <mxCell id="2GsTjujepCsadmKj7Dgk-7" value="contains" style="text;html=1;strokeColor=none;fillColor=none;align=center;verticalAlign=middle;whiteSpace=wrap;rounded=0;" parent="1" vertex="1">
          <mxGeometry x="-125" y="2090" width="60" height="30" as="geometry" />
        </mxCell>
        <mxCell id="2GsTjujepCsadmKj7Dgk-8" value="1" style="text;html=1;align=center;verticalAlign=middle;resizable=0;points=[];autosize=1;strokeColor=none;fillColor=none;" parent="1" vertex="1">
          <mxGeometry x="-180" y="2070" width="30" height="30" as="geometry" />
        </mxCell>
        <mxCell id="2GsTjujepCsadmKj7Dgk-9" value="0..*" style="text;html=1;align=center;verticalAlign=middle;resizable=0;points=[];autosize=1;strokeColor=none;fillColor=none;" parent="1" vertex="1">
          <mxGeometry x="-187.5" y="2120" width="40" height="30" as="geometry" />
        </mxCell>
        <mxCell id="2GsTjujepCsadmKj7Dgk-32" value="" style="endArrow=none;html=1;rounded=0;" parent="1" edge="1">
          <mxGeometry width="50" height="50" relative="1" as="geometry">
            <mxPoint x="2700" y="2270" as="sourcePoint" />
            <mxPoint x="2720" y="2270" as="targetPoint" />
            <Array as="points">
              <mxPoint x="2710" y="2250" />
            </Array>
          </mxGeometry>
        </mxCell>
        <mxCell id="2GsTjujepCsadmKj7Dgk-43" value="&lt;font style=&quot;font-weight: bold; text-decoration-line: underline; font-size: 24px;&quot;&gt;Things to do:&lt;/font&gt;&lt;br&gt;&lt;br&gt;Create a domain&lt;br&gt;Create SQL for creation of databases&lt;br&gt;Create SQL for adding data" style="text;html=1;align=left;verticalAlign=middle;whiteSpace=wrap;rounded=0;fillColor=#f5f5f5;fontColor=#333333;strokeColor=#666666;" parent="1" vertex="1">
          <mxGeometry x="425" y="2130" width="370" height="150" as="geometry" />
        </mxCell>
        <mxCell id="AAUg90_y96sxE8K1oEhU-2" value="ERD" style="text;html=1;strokeColor=none;fillColor=none;align=center;verticalAlign=middle;whiteSpace=wrap;rounded=0;" parent="1" vertex="1">
          <mxGeometry x="-150" y="1185" width="60" height="30" as="geometry" />
        </mxCell>
        <mxCell id="Lg1Hx-eJQgYu_a35tPqR-10" value="Text" style="text;html=1;strokeColor=none;fillColor=none;align=center;verticalAlign=middle;whiteSpace=wrap;rounded=0;" vertex="1" parent="1">
          <mxGeometry x="70" y="1680" width="60" height="30" as="geometry" />
        </mxCell>
        <mxCell id="Lg1Hx-eJQgYu_a35tPqR-11" value="Admin separate - summary feature table&lt;br&gt;Relational Model derived from ERD - step by step&lt;br&gt;" style="text;html=1;strokeColor=none;fillColor=none;align=center;verticalAlign=middle;whiteSpace=wrap;rounded=0;" vertex="1" parent="1">
          <mxGeometry x="-619" y="1680" width="257.5" height="220" as="geometry" />
        </mxCell>
        <mxCell id="Lg1Hx-eJQgYu_a35tPqR-14" value="" style="endArrow=none;dashed=1;html=1;rounded=0;exitX=0.5;exitY=0;exitDx=0;exitDy=0;" edge="1" parent="1">
          <mxGeometry width="50" height="50" relative="1" as="geometry">
            <mxPoint x="503.82" y="1510" as="sourcePoint" />
            <mxPoint x="503.82" y="1440" as="targetPoint" />
          </mxGeometry>
        </mxCell>
        <mxCell id="Lg1Hx-eJQgYu_a35tPqR-15" value="" style="swimlane;whiteSpace=wrap;html=1;" vertex="1" parent="1">
          <mxGeometry x="455" y="1380" width="130" height="60" as="geometry" />
        </mxCell>
        <mxCell id="Lg1Hx-eJQgYu_a35tPqR-17" value="" style="endArrow=none;dashed=1;html=1;rounded=0;entryX=0;entryY=0.5;entryDx=0;entryDy=0;" edge="1" parent="1" target="Lg1Hx-eJQgYu_a35tPqR-18">
          <mxGeometry width="50" height="50" relative="1" as="geometry">
            <mxPoint x="250" y="1820" as="sourcePoint" />
            <mxPoint x="320" y="1820" as="targetPoint" />
            <Array as="points">
              <mxPoint x="360" y="1820" />
              <mxPoint x="360" y="1950" />
            </Array>
          </mxGeometry>
        </mxCell>
        <mxCell id="Lg1Hx-eJQgYu_a35tPqR-18" value="" style="swimlane;whiteSpace=wrap;html=1;" vertex="1" parent="1">
          <mxGeometry x="532.5" y="1928" width="120" height="50" as="geometry" />
        </mxCell>
      </root>
    </mxGraphModel>
  </diagram>
</mxfile>
